<svg width="453" height="368" viewBox="0 0 453 368" fill="none" xmlns="http://www.w3.org/2000/svg">
<g clip-path="url(#clip0)">
<path d="M302.872 4.47383C302.872 4.47383 284.71 -2.02281 273.034 23.9637C261.358 49.9503 243.195 78.5355 243.195 78.5355L253.574 81.1342C253.574 81.1342 256.168 62.9436 262.655 60.3449L260.06 83.7328C260.06 83.7328 337.9 111.019 372.928 81.1342L371.631 72.0389C371.631 72.0389 376.82 73.3382 376.82 81.1342L380.712 77.2362C380.712 77.2362 376.82 69.4402 365.144 59.0456C357.48 52.223 354.847 39.2431 353.942 31.1279C353.264 24.3516 350.557 17.9387 346.176 12.7303C338.417 3.72391 324.278 -5.84861 302.872 4.47383Z" fill="#2F2E41"/>
<path d="M413.107 151.522C413.107 151.522 447.285 180.719 452.311 197.834C457.337 214.949 433.211 216.963 433.211 216.963L380.939 221.997C380.939 221.997 379.934 246.16 370.887 249.18C361.839 252.201 369.05 209.223 369.05 209.223L420.143 194.814L397.023 170.651L413.107 151.522Z" fill="#FBBEBE"/>
<path d="M253.274 181.725L249.253 235.085L227.137 325.696C227.137 325.696 207.033 366.975 224.122 367.981C241.211 368.988 240.206 328.717 240.206 328.717L272.373 243.14L275.389 184.746L253.274 181.725Z" fill="#FBBEBE"/>
<path d="M309.567 88.0941C327.888 88.0941 342.74 73.2191 342.74 54.87C342.74 36.5209 327.888 21.646 309.567 21.646C291.246 21.646 276.394 36.5209 276.394 54.87C276.394 73.2191 291.246 88.0941 309.567 88.0941Z" fill="#FBBEBE"/>
<path d="M294.488 70.9786C294.488 70.9786 306.551 114.271 287.452 125.345C268.352 136.42 335.703 144.474 353.797 111.25C353.797 111.25 321.63 100.176 330.677 70.9786H294.488Z" fill="#FBBEBE"/>
<path d="M271.368 130.379L265.337 128.366C265.337 128.366 253.274 133.4 253.274 142.461C253.274 151.522 251.263 187.766 251.263 187.766L278.405 190.787L271.368 130.379Z" fill="#039BE5"/>
<path d="M389.506 331.134C352.397 336.64 298.31 341.086 242.219 333.36C242.215 332.804 242.215 332.263 242.215 331.736C242.215 328.594 242.335 325.488 242.575 322.417C245.448 284.608 264.897 253.086 272.422 242.162C272.801 241.607 273.152 241.107 273.466 240.663C274.681 238.956 275.388 238.054 275.388 238.054C275.388 238.054 333.692 237.101 363.849 249.181C365.303 249.792 366.633 250.664 367.775 251.753C379.019 262.145 385.625 295.883 389.506 331.134Z" fill="#2F2E41"/>
<path d="M367.871 116.284C367.871 116.284 380.939 109.237 394.007 124.338L420.144 154.542L400.039 176.691L361.84 153.535L367.871 116.284Z" fill="#039BE5"/>
<path d="M273.721 55.0807C285.464 46.5687 294.97 36.7646 301.259 25.1021C301.259 25.1021 322.81 49.085 335.98 50.2841C349.151 51.4832 337.178 21.5047 337.178 21.5047L313.232 15.509L290.483 17.9072L272.523 29.8987L273.721 55.0807Z" fill="#2F2E41"/>
<path d="M348.771 109.237C348.771 109.237 334.704 131.513 292.481 120.878L268.521 127.487L265.336 128.366C265.336 128.366 268.352 188.773 276.394 199.848C284.436 210.922 282.426 216.963 280.415 217.97C278.405 218.977 273.378 216.963 276.394 221.997C279.41 227.031 283.431 224.011 279.41 227.031C275.389 230.051 273.378 241.126 273.378 241.126L367.871 253.207C367.871 253.207 364.855 213.943 372.897 193.807C380.939 173.671 382.95 165.617 382.95 165.617L376.918 115.277L348.771 109.237Z" fill="#039BE5"/>
<path d="M152.387 89.5269H23.0378V251.462H152.387V89.5269Z" fill="#039BE5" fill-opacity="0.6"/>
<path d="M59.7635 103.176H32.0459V121.683H59.7635V103.176Z" fill="white"/>
<path d="M139.451 139.264H32.2769V145.742H139.451V139.264Z" fill="white"/>
<path d="M139.451 156.383H32.2769V162.86H139.451V156.383Z" fill="white"/>
<path d="M139.451 173.502H32.2769V179.979H139.451V173.502Z" fill="white"/>
<path d="M139.451 190.621H32.2769V197.098H139.451V190.621Z" fill="white"/>
<path d="M139.451 207.74H32.2769V214.217H139.451V207.74Z" fill="white"/>
<path d="M177.794 251.231C177.788 257.342 175.581 263.245 171.577 267.857C167.574 272.468 162.043 275.478 156.002 276.333C149.96 277.187 143.814 275.83 138.691 272.51C133.569 269.189 129.815 264.129 128.119 258.259C126.424 252.389 126.9 246.103 129.461 240.556C132.022 235.01 136.495 230.575 142.059 228.067C147.623 225.559 153.904 225.146 159.748 226.904C165.591 228.662 170.605 232.474 173.868 237.637C176.433 241.706 177.795 246.419 177.794 251.231Z" fill="#039BE5"/>
<path d="M169.428 239.454L144.418 264.499C142.846 262.061 134.088 250.734 134.088 250.734C135.21 249.598 136.408 248.539 137.673 247.565L144.935 257.263L166.499 235.665C167.593 236.833 168.573 238.101 169.428 239.454Z" fill="white"/>
</g>
<defs>
<clipPath id="clip0">
<rect width="453" height="368" fill="white"/>
</clipPath>
</defs>
</svg>
