<svg width="199" height="308" viewBox="0 0 199 308" fill="none" xmlns="http://www.w3.org/2000/svg">
<path d="M135.558 136.667H74.8768V204.571H135.558V136.667Z" fill="#CCCCCC"/>
<path d="M43.9846 306.704H13.0921L9.78223 280.205H47.2945L43.9846 306.704Z" fill="#E6E6E6"/>
<path d="M106.018 287.51L104.975 301.773C104.928 302.418 105.019 303.066 105.243 303.674C105.467 304.281 105.818 304.834 106.272 305.294C106.727 305.755 107.274 306.113 107.878 306.344C108.482 306.576 109.129 306.675 109.775 306.636L117.095 306.192C117.434 306.172 117.765 306.076 118.063 305.914C118.361 305.751 118.62 305.524 118.821 305.25C119.022 304.976 119.16 304.66 119.225 304.327C119.291 303.993 119.282 303.649 119.2 303.319L115.136 287.053L106.018 287.51Z" fill="#E6E6E6"/>
<path d="M167.249 295.944C175.864 297.961 182.019 300.828 186.062 304.708C187.501 306.079 189.385 306.887 191.37 306.985C193.906 307.119 195.979 306.834 197.538 306.138H197.538C197.937 305.962 198.282 305.682 198.536 305.327C198.791 304.973 198.946 304.557 198.986 304.122C199.033 303.681 198.961 303.234 198.778 302.83C198.595 302.425 198.307 302.077 197.944 301.822L177.511 287.272L168.832 290.747L166.807 292.773C166.588 292.993 166.423 293.26 166.324 293.554C166.226 293.848 166.197 294.161 166.239 294.468C166.282 294.776 166.396 295.069 166.571 295.325C166.746 295.581 166.978 295.793 167.249 295.944H167.249Z" fill="#E6E6E6"/>
<path d="M140.735 63.0724L82.3298 62.5312C82.4767 54.0179 84.4559 45.6581 88.7823 38.1773C91.6237 33.2642 91.5624 27.9172 90.8776 23.4125C89.8209 16.4609 92.2782 9.34826 97.7385 4.92303C101.911 1.53533 107.178 -0.208524 112.546 0.0199069L113.68 0.0671904C117.374 0.220827 120.971 1.30075 124.139 3.20779C127.308 5.11483 129.946 7.78789 131.813 10.9815C133.711 14.3909 134.476 18.3158 133.999 22.189C133.629 25.8333 134.514 29.5148 136.586 33.2314C140.161 41.3924 140.935 51.8355 140.735 63.0724Z" fill="#2F2E41"/>
<path d="M179.811 288.031L168.348 291.024L112.53 169.328L116.019 288.031H104.556C92.3077 232.184 70.1937 167.731 80.1359 147.382L139.443 143.891L179.811 288.031Z" fill="#25A69A"/>
<path d="M112.032 42.644C120.565 42.644 127.482 35.7217 127.482 27.1826C127.482 18.6435 120.565 11.7212 112.032 11.7212C103.499 11.7212 96.5823 18.6435 96.5823 27.1826C96.5823 35.7217 103.499 42.644 112.032 42.644Z" fill="#FFB9B9"/>
<path d="M125.488 55.6115L100.071 54.1152C102.562 48.3937 103.557 42.8841 102.563 37.6564H121.501C121.458 41.6703 123.454 48.6135 125.488 55.6115Z" fill="#FFB9B9"/>
<path d="M141.436 148.38L85.6182 152.37L91.3493 53.3672L101.068 50.624L112.032 53.1177L122.996 47.6312L129.973 50.1255L141.436 148.38Z" fill="#25A69A"/>
<path d="M95.0873 219.702L56.9615 210.974C68.2983 173.351 88.722 87.2814 82.1295 56.6091L102.065 47.6315L95.0873 219.702Z" fill="#E6E6E6"/>
<path d="M76.6472 110.973L62.1943 101.996L74.5201 65.8686C75.8948 62.1407 78.5279 59.0108 81.9642 57.0198L86.1164 54.6141L83.6245 91.0232L76.6472 110.973Z" fill="#E6E6E6"/>
<path d="M174.578 211.472C162.545 218.439 132.466 222.323 119.258 217.457C118.287 183.465 116.381 87.3128 122.498 46.634L144.426 55.6116L142.433 82.5443C131.949 105.584 162.391 185.83 174.578 211.472Z" fill="#E6E6E6"/>
<path d="M172.834 106.485L159.377 101.996L141.436 81.5466L144.427 55.6115L174.329 97.507L172.834 106.485Z" fill="#E6E6E6"/>
<path d="M130.662 125.898C130.882 126.865 131.477 127.705 132.315 128.234C133.153 128.763 134.167 128.938 135.134 128.72L146.556 126.131L144.905 118.835L133.482 121.423C132.516 121.642 131.675 122.237 131.147 123.076C130.618 123.915 130.443 124.93 130.662 125.898Z" fill="#FFB9B9"/>
<path d="M125.488 23.1925C116.907 19.6612 108.431 19.4056 100.071 22.6937L96.5823 10.2249H128.478L125.488 23.1925Z" fill="#2F2E41"/>
<path d="M140.938 117.457L147.416 129.427C158.314 126.385 167.758 116.796 176.821 105.487L174.329 97.5068L158.879 101.497L140.938 117.457Z" fill="#E6E6E6"/>
<path d="M136.203 92.7687H134.21C134.21 64.5521 128.404 44.8883 122.747 44.8883L122.249 42.8933C127.322 42.8933 130.557 51.0772 132.377 57.9429C134.844 67.2504 136.203 79.6185 136.203 92.7687Z" fill="#3F3D56"/>
<path d="M90.3527 85.7862H88.3591C88.3591 59.9443 94.2046 43.8909 102.812 43.8909L102.314 45.8859C96.3599 45.8859 90.3527 58.2235 90.3527 85.7862Z" fill="#3F3D56"/>
<path d="M135.206 98.2551C137.959 98.2551 140.19 96.0221 140.19 93.2676C140.19 90.513 137.959 88.28 135.206 88.28C132.454 88.28 130.223 90.513 130.223 93.2676C130.223 96.0221 132.454 98.2551 135.206 98.2551Z" fill="#3F3D56"/>
<path d="M82.3788 97.7563H80.3853C80.3853 90.6059 84.4095 84.7887 89.356 84.7887V86.7837C85.5087 86.7837 82.3788 91.706 82.3788 97.7563Z" fill="#3F3D56"/>
<path d="M98.3265 97.7563H96.333C96.333 91.706 93.203 86.7837 89.3557 86.7837V84.7887C94.3022 84.7887 98.3265 90.606 98.3265 97.7563Z" fill="#3F3D56"/>
<path d="M97.3299 100.25C98.4309 100.25 99.3234 99.3568 99.3234 98.255C99.3234 97.1532 98.4309 96.26 97.3299 96.26C96.229 96.26 95.3364 97.1532 95.3364 98.255C95.3364 99.3568 96.229 100.25 97.3299 100.25Z" fill="#3F3D56"/>
<path d="M81.3818 100.25C82.4828 100.25 83.3753 99.3568 83.3753 98.255C83.3753 97.1532 82.4828 96.26 81.3818 96.26C80.2808 96.26 79.3883 97.1532 79.3883 98.255C79.3883 99.3568 80.2808 100.25 81.3818 100.25Z" fill="#3F3D56"/>
<path d="M56.4629 79.9097L68.901 82.1323L97.3298 122.586L82.2267 119.029L56.4629 79.9097Z" fill="#25A69A"/>
<path d="M54.2569 79.4144C54.0673 79.4173 53.8821 79.471 53.7204 79.5701C53.5587 79.6692 53.4267 79.8099 53.3379 79.9775C53.2492 80.1451 53.2071 80.3336 53.2161 80.5231C53.225 80.7125 53.2847 80.8961 53.3889 81.0546L79.9626 121.404C80.1109 121.63 80.34 121.79 80.6027 121.852L92.9666 124.763C93.1751 124.812 93.3936 124.796 93.593 124.718C93.7925 124.64 93.9635 124.504 94.0835 124.326C94.2034 124.148 94.2666 123.939 94.2646 123.724C94.2627 123.51 94.1956 123.301 94.0724 123.126L64.896 81.6094C64.8169 81.4963 64.7163 81.3999 64.5999 81.3257C64.4835 81.2515 64.3537 81.201 64.2178 81.1771L54.4562 79.4325C54.3904 79.4206 54.3237 79.4146 54.2569 79.4144Z" fill="#3F3D56"/>
<path d="M70.8337 108.264L71.5723 115.709L83.2267 114.551C84.2132 114.453 85.1204 113.967 85.7487 113.199C86.377 112.432 86.675 111.446 86.5771 110.459C86.4792 109.472 85.9934 108.564 85.2266 107.935C84.4599 107.306 83.4749 107.008 82.4884 107.106L70.8337 108.264Z" fill="#FFB9B9"/>
<path d="M60.6995 107.402C60.7164 109.94 61.7351 112.369 63.5338 114.159C65.3324 115.949 67.7651 116.955 70.3017 116.958H72.2181L73.6132 105.323L62.0617 101.161L60.6995 107.402Z" fill="#E6E6E6"/>
<path d="M5.15903 270.402C13.1136 281.063 29.6259 282.185 29.6259 282.185C29.6259 282.185 33.2411 266.022 25.2865 255.361C17.3319 244.7 0.819675 243.578 0.819675 243.578C0.819675 243.578 -2.79559 259.741 5.15903 270.402Z" fill="#E6E6E6"/>
<path d="M45.6815 274.409C40.4325 281.444 29.5366 282.185 29.5366 282.185C29.5366 282.185 27.151 271.519 32.4 264.484C37.649 257.449 48.545 256.709 48.545 256.709C48.545 256.709 50.9306 267.374 45.6815 274.409Z" fill="#E6E6E6"/>
</svg>
